<?xml version="1.0" encoding="utf-8"?>
<!-- Generator: Adobe Illustrator 17.0.2, SVG Export Plug-In . SVG Version: 6.00 Build 0)  -->
<!DOCTYPE svg PUBLIC "-//W3C//DTD SVG 1.1//EN" "http://www.w3.org/Graphics/SVG/1.1/DTD/svg11.dtd">
<svg version="1.1" id="Layer_1" xmlns="http://www.w3.org/2000/svg" xmlns:xlink="http://www.w3.org/1999/xlink" x="0px" y="0px"
	 width="524.057px" height="329.401px" viewBox="0 0 524.057 329.401" enable-background="new 0 0 524.057 329.401"
	 xml:space="preserve">
<g>
	<path fill="#CED4D7" d="M502.995,227.593H162.96h-10.585v10.585v8.146v8.248c0,5.846,4.739,10.585,10.585,10.585h340.034
		c5.846,0,10.585-4.739,10.585-10.585v-8.248v-8.146v-10.585H502.995z"/>
	<path fill="#78878C" d="M162.96,227.593h340.034h10.585v-10.585V31.365v-8.248c0-5.846-4.739-10.585-10.585-10.585H162.96
		c-5.846,0-10.585,4.739-10.585,10.585v8.248v185.643v10.585H162.96z"/>
</g>
<g>
	<path fill="#CED4D7" d="M379.713,260.199c0-18.934-35.016-6.386-46.736-1.642c-11.72-4.744-46.736-17.269-46.736,1.665
		c0,32.841-20.21,60.696-20.21,60.696h63.156h7.579h63.156C399.923,320.917,379.713,293.04,379.713,260.199z"/>
	<path fill="#CED4D6" d="M382.113,280.604h-98.271c1.112-4.865,1.92-10.426,2.223-15.291h93.825
		C380.193,270.179,381.001,275.739,382.113,280.604z"/>
	<rect x="261.042" y="313.272" fill="#CED4D7" width="143.876" height="7.646"/>
	<path opacity="0.15" fill="#657275" d="M382.113,280.604h-98.271c1.112-4.865,1.92-10.426,2.223-15.291h93.825
		C380.193,270.179,381.001,275.739,382.113,280.604z"/>
	<rect x="169.991" y="30.386" fill="#02526A" width="325.979" height="20.852"/>
	<rect x="261.042" y="313.272" fill="#9EADB2" width="143.876" height="7.646"/>
</g>
<g>
	<rect x="231.683" y="51.237" fill="#FFFFFF" width="264.287" height="158.472"/>
	<g>
		<rect x="352.826" y="68.589" fill="#ECECEC" width="101.844" height="3.475"/>
		<path fill="#ECECEC" d="M456.06,72.064c0,0.768-0.622,1.39-1.39,1.39H352.826c-0.768,0-1.39-0.622-1.39-1.39v-3.475
			c0-0.768,0.622-1.39,1.39-1.39H454.67c0.768,0,1.39,0.622,1.39,1.39V72.064z M354.216,70.674h99.064v-0.695h-99.064V70.674z"/>
	</g>
	<g>
		<rect x="352.826" y="80.672" fill="#ECECEC" width="74.02" height="3.475"/>
		<path fill="#ECECEC" d="M428.236,84.147c0,0.768-0.622,1.39-1.39,1.39h-74.02c-0.768,0-1.39-0.622-1.39-1.39v-3.475
			c0-0.768,0.622-1.39,1.39-1.39h74.02c0.768,0,1.39,0.622,1.39,1.39V84.147z M354.216,82.757h71.24v-0.695h-71.24V82.757z"/>
	</g>
	<rect x="231.683" y="51.237" fill="#ECECEC" width="77.166" height="158.472"/>
	<rect x="169.991" y="51.237" fill="#CED4D7" width="61.693" height="158.472"/>
	<g>
		<rect x="327.498" y="67.813" fill="#ECECEC" width="16.681" height="16.681"/>
		<path fill="#ECECEC" d="M345.569,84.494c0,0.768-0.622,1.39-1.39,1.39h-16.681c-0.768,0-1.39-0.622-1.39-1.39V67.813
			c0-0.768,0.622-1.39,1.39-1.39h16.681c0.768,0,1.39,0.622,1.39,1.39V84.494z M328.888,83.799h13.901V69.203h-13.901V83.799z"/>
	</g>
	<g>
		<path fill="#FFFFFF" d="M341.127,76.507c0.072-0.373,0.11-0.76,0.11-1.156c0-1.681-0.797-3.535-1.706-4.482
			c-0.307-0.32-0.622-0.549-1.013-0.732c-0.813-0.381-1.579-0.407-2.43-0.407c-2.122,0-4.043,1.408-4.831,3.409
			c-0.268,0.681-0.317,1.425-0.317,2.213c0,0.147,0.016,1.1,0.016,1.1s-1.264,0.157-0.824,1.727c0,0,0.308,0.953,1.361,0.885
			c0.106,0.323,0.229,0.606,0.376,0.81l0,0.002c0.794,1.494,2.365,2.535,4.174,2.535c2.12,0,3.914-1.339,4.513-3.295h0
			c1.31,0.089,1.437-1.332,1.437-1.332C341.914,76.936,341.459,76.613,341.127,76.507z"/>
		<path fill="#78878C" d="M330.955,76.451c0,0,0.733,0.073,1.236-0.5c0.506-0.577,0.428-0.974,0.605-2.011
			c0,0,0.097-1.382,1.209-1.364c0.934,0.015,1.156,0.571,2.177,0.605c1.138,0.038,1.401-0.457,2.084-0.457
			c0.548,0,0.886,0.253,0.949,1.266c0.056,0.898,0.391,1.562,0.795,1.976c0.351,0.361,0.96,0.529,1.116,0.542
			c0,0,0.059-0.368,0.078-0.53c0.033-0.283,0.033-0.419,0.035-0.561c0.003-0.25-0.006-0.283-0.014-0.436
			c-0.015-0.293-0.046-0.515-0.088-0.743c-0.062-0.337-0.154-0.775-0.44-1.483c-0.421-1.042-0.984-1.789-1.562-2.243
			c-1.067-0.837-2.268-0.813-3.292-0.776c-0.818,0.03-2.057,0.319-3.069,1.261c-0.738,0.686-1.205,1.304-1.607,2.397
			c-0.089,0.243-0.149,0.577-0.186,0.961C330.916,75.01,330.924,75.802,330.955,76.451z"/>
	</g>
	<line fill="none" stroke="#CED4D7" stroke-miterlimit="10" x1="231.683" y1="78.852" x2="308.849" y2="78.852"/>
	<line fill="none" stroke="#CED4D7" stroke-miterlimit="10" x1="231.683" y1="105.893" x2="308.849" y2="105.893"/>
	<line fill="none" stroke="#CED4D7" stroke-miterlimit="10" x1="231.683" y1="132.934" x2="308.849" y2="132.934"/>
	<line fill="none" stroke="#CED4D7" stroke-miterlimit="10" x1="231.683" y1="159.974" x2="308.849" y2="159.974"/>
	<line fill="none" stroke="#CED4D7" stroke-miterlimit="10" x1="231.683" y1="187.015" x2="308.849" y2="187.015"/>
	
		<line fill="none" stroke="#ECECEC" stroke-width="3" stroke-linecap="round" stroke-miterlimit="10" x1="326.108" y1="103.111" x2="475.2" y2="103.111"/>
	
		<line opacity="0.5" fill="none" stroke="#ECECEC" stroke-width="3" stroke-linecap="round" stroke-miterlimit="10" x1="194.488" y1="69.183" x2="220.516" y2="69.183"/>
	
		<line fill="none" stroke="#ECECEC" stroke-width="3" stroke-linecap="round" stroke-miterlimit="10" x1="326.108" y1="113.646" x2="458.773" y2="113.646"/>
	
		<line fill="none" stroke="#ECECEC" stroke-width="3" stroke-linecap="round" stroke-miterlimit="10" x1="326.108" y1="124.181" x2="437.515" y2="124.181"/>
	
		<line fill="none" stroke="#ECECEC" stroke-width="3" stroke-linecap="round" stroke-miterlimit="10" x1="326.108" y1="134.716" x2="458.773" y2="134.716"/>
	
		<line fill="none" stroke="#ECECEC" stroke-width="3" stroke-linecap="round" stroke-miterlimit="10" x1="326.108" y1="145.251" x2="447.376" y2="145.251"/>
	
		<line fill="none" stroke="#ECECEC" stroke-width="3" stroke-linecap="round" stroke-miterlimit="10" x1="326.108" y1="155.786" x2="458.773" y2="155.786"/>
	
		<line fill="none" stroke="#ECECEC" stroke-width="3" stroke-linecap="round" stroke-miterlimit="10" x1="326.108" y1="166.321" x2="437.515" y2="166.321"/>
	
		<line fill="none" stroke="#ECECEC" stroke-width="3" stroke-linecap="round" stroke-miterlimit="10" x1="326.108" y1="176.857" x2="447.376" y2="176.857"/>
	<circle opacity="0.5" fill="#ECECEC" cx="183.347" cy="69.183" r="4.336"/>
	
		<line opacity="0.5" fill="none" stroke="#ECECEC" stroke-width="3" stroke-linecap="round" stroke-miterlimit="10" x1="194.488" y1="84.194" x2="214.183" y2="84.194"/>
	<circle opacity="0.5" fill="#ECECEC" cx="183.347" cy="84.194" r="4.336"/>
	
		<line opacity="0.5" fill="none" stroke="#ECECEC" stroke-width="3" stroke-linecap="round" stroke-miterlimit="10" x1="194.488" y1="99.205" x2="216.433" y2="99.205"/>
	<circle opacity="0.5" fill="#ECECEC" cx="183.347" cy="99.205" r="4.336"/>
</g>
<g opacity="0.15">
	<path fill="#78878C" d="M130.728,107.927v157.23h93.915V117.192c0-5.095-4.17-9.265-9.265-9.265H130.728z"/>
</g>
<g>
	<g>
		<path fill="#657275" d="M208.551,107.928c5.097,0,9.268,4.17,9.268,9.268v194.453c0,5.097-4.17,9.268-9.268,9.268H71.415
			c-5.097,0-9.268-4.17-9.268-9.268V117.195c0-5.097,4.17-9.268,9.268-9.268L208.551,107.928L208.551,107.928z"/>
	</g>
	<rect x="77.994" y="130.064" fill="#FFFFFF" width="123.979" height="168.715"/>
	<g>
		<path fill="#9EADB2" d="M139.983,306.418c2.363,0,4.279,1.916,4.279,4.279l0,0c0,2.363-1.916,4.279-4.279,4.279l0,0
			c-2.363,0-4.279-1.916-4.279-4.279l0,0C135.704,308.334,137.62,306.418,139.983,306.418L139.983,306.418z"/>
	</g>
	<g>
		<path fill="#9EADB2" d="M148.541,121.028h-17.116c-0.93,0-1.684-0.754-1.684-1.684c0-0.93,0.754-1.684,1.684-1.684h17.116
			c0.93,0,1.684,0.754,1.684,1.684C150.225,120.274,149.471,121.028,148.541,121.028z"/>
	</g>
	<g>
		<rect x="151.719" y="157.622" fill="#ECECEC" width="39.61" height="3.475"/>
		<path fill="#ECECEC" d="M192.719,161.097c0,0.768-0.622,1.39-1.39,1.39h-39.61c-0.768,0-1.39-0.622-1.39-1.39v-3.475
			c0-0.768,0.622-1.39,1.39-1.39h39.61c0.768,0,1.39,0.622,1.39,1.39V161.097z M153.109,159.707h36.83v-0.695h-36.83V159.707z"/>
	</g>
	<g>
		<rect x="151.719" y="169.705" fill="#ECECEC" width="35.298" height="3.475"/>
		<path fill="#ECECEC" d="M188.407,173.18c0,0.768-0.622,1.39-1.39,1.39h-35.298c-0.768,0-1.39-0.622-1.39-1.39v-3.475
			c0-0.768,0.622-1.39,1.39-1.39h35.298c0.768,0,1.39,0.622,1.39,1.39V173.18z M153.109,171.79h32.517v-0.695h-32.517V171.79z"/>
	</g>
	<rect x="77.994" y="144.065" fill="#ECECEC" width="38.104" height="154.715"/>
	<g>
		<rect x="126.391" y="156.845" fill="#ECECEC" width="16.681" height="16.681"/>
		<path fill="#ECECEC" d="M144.462,173.527c0,0.768-0.622,1.39-1.39,1.39h-16.681c-0.768,0-1.39-0.622-1.39-1.39v-16.681
			c0-0.768,0.622-1.39,1.39-1.39h16.681c0.768,0,1.39,0.622,1.39,1.39V173.527z M127.781,172.832h13.901v-14.596h-13.901V172.832z"
			/>
	</g>
	<g>
		<path fill="#FFFFFF" d="M140.02,165.54c0.072-0.373,0.11-0.76,0.11-1.156c0-1.681-0.797-3.535-1.706-4.482
			c-0.307-0.32-0.622-0.549-1.013-0.732c-0.813-0.381-1.579-0.407-2.43-0.407c-2.122,0-4.043,1.408-4.831,3.409
			c-0.268,0.681-0.317,1.425-0.317,2.213c0,0.147,0.016,1.1,0.016,1.1s-1.264,0.157-0.824,1.727c0,0,0.308,0.953,1.361,0.885
			c0.106,0.323,0.229,0.606,0.376,0.81l0,0.001c0.795,1.494,2.365,2.536,4.175,2.536c2.12,0,3.914-1.339,4.513-3.295h0
			c1.31,0.089,1.437-1.332,1.437-1.332C140.807,165.969,140.353,165.645,140.02,165.54z"/>
		<path fill="#78878C" d="M129.848,165.483c0,0,0.733,0.073,1.236-0.5c0.506-0.577,0.428-0.974,0.605-2.011
			c0,0,0.097-1.382,1.209-1.364c0.934,0.015,1.156,0.571,2.177,0.605c1.138,0.038,1.401-0.457,2.084-0.457
			c0.548,0,0.886,0.253,0.949,1.266c0.056,0.898,0.391,1.562,0.795,1.976c0.351,0.361,0.96,0.529,1.116,0.542
			c0,0,0.059-0.368,0.078-0.53c0.033-0.283,0.033-0.419,0.035-0.561c0.003-0.25-0.006-0.283-0.014-0.436
			c-0.015-0.293-0.046-0.515-0.088-0.743c-0.062-0.337-0.154-0.775-0.44-1.483c-0.421-1.042-0.984-1.789-1.562-2.243
			c-1.067-0.837-2.268-0.813-3.292-0.776c-0.818,0.03-2.057,0.319-3.069,1.26c-0.738,0.686-1.205,1.304-1.607,2.397
			c-0.089,0.243-0.149,0.577-0.186,0.961C129.81,164.043,129.818,164.834,129.848,165.483z"/>
	</g>
	<line fill="none" stroke="#CED4D7" stroke-miterlimit="10" x1="77.994" y1="159.946" x2="116.098" y2="159.946"/>
	<line fill="none" stroke="#CED4D7" stroke-miterlimit="10" x1="77.994" y1="178.119" x2="116.098" y2="178.119"/>
	<line fill="none" stroke="#CED4D7" stroke-miterlimit="10" x1="77.994" y1="196.291" x2="116.098" y2="196.291"/>
	<line fill="none" stroke="#CED4D7" stroke-miterlimit="10" x1="77.994" y1="214.464" x2="116.098" y2="214.464"/>
	<line fill="none" stroke="#CED4D7" stroke-miterlimit="10" x1="77.994" y1="232.637" x2="116.098" y2="232.637"/>
	<line fill="none" stroke="#CED4D7" stroke-miterlimit="10" x1="77.994" y1="250.809" x2="116.098" y2="250.809"/>
	<line fill="none" stroke="#CED4D7" stroke-miterlimit="10" x1="77.994" y1="268.982" x2="116.098" y2="268.982"/>
	<line fill="none" stroke="#CED4D7" stroke-miterlimit="10" x1="77.994" y1="287.155" x2="116.098" y2="287.155"/>
	
		<line fill="none" stroke="#ECECEC" stroke-width="3" stroke-linecap="round" stroke-miterlimit="10" x1="125.696" y1="194.926" x2="192.719" y2="194.926"/>
	
		<line fill="none" stroke="#ECECEC" stroke-width="3" stroke-linecap="round" stroke-miterlimit="10" x1="125.696" y1="205.461" x2="187.017" y2="205.461"/>
	
		<line fill="none" stroke="#ECECEC" stroke-width="3" stroke-linecap="round" stroke-miterlimit="10" x1="125.696" y1="215.996" x2="177.156" y2="215.996"/>
	
		<line fill="none" stroke="#ECECEC" stroke-width="3" stroke-linecap="round" stroke-miterlimit="10" x1="125.696" y1="226.531" x2="187.017" y2="226.531"/>
	
		<line fill="none" stroke="#ECECEC" stroke-width="3" stroke-linecap="round" stroke-miterlimit="10" x1="125.696" y1="237.066" x2="187.017" y2="237.066"/>
	
		<line fill="none" stroke="#ECECEC" stroke-width="3" stroke-linecap="round" stroke-miterlimit="10" x1="125.696" y1="247.601" x2="187.017" y2="247.601"/>
	
		<line fill="none" stroke="#ECECEC" stroke-width="3" stroke-linecap="round" stroke-miterlimit="10" x1="125.696" y1="258.136" x2="177.156" y2="258.136"/>
	
		<line fill="none" stroke="#ECECEC" stroke-width="3" stroke-linecap="round" stroke-miterlimit="10" x1="125.696" y1="268.672" x2="187.017" y2="268.672"/>
	<rect x="77.994" y="130.065" fill="#02526A" width="123.978" height="14"/>
</g>
<g>
	<g opacity="0.15">
		<path fill="#78878C" d="M97.409,312.528c0,4.548-3.45,8.389-7.995,8.389H25.511c-4.547,0-8.334-3.841-8.334-8.389V177.44
			c0-4.546,3.787-8.373,8.334-8.373h63.903c4.546,0,7.996,3.827,7.996,8.373V312.528L97.409,312.528z"/>
	</g>
	<g>
		<path fill="#78878C" d="M90.404,312.528c0,4.548-3.45,8.389-7.995,8.389H18.505c-4.547,0-8.334-3.841-8.334-8.389V177.44
			c0-4.546,3.787-8.373,8.334-8.373h63.903c4.546,0,7.996,3.827,7.996,8.373V312.528L90.404,312.528z"/>
	</g>
	<g>
		<path fill="#9EADB2" d="M50.457,312.505c-3.378,0-6.125-2.748-6.125-6.124c0-3.378,2.747-6.126,6.125-6.126
			c3.376,0,6.125,2.748,6.125,6.126C56.581,309.757,53.833,312.505,50.457,312.505z"/>
	</g>
	<rect x="17.71" y="197.068" fill="#FFFFFF" width="65.694" height="95.849"/>
	<rect x="17.71" y="184.145" fill="#02526A" width="65.694" height="12.923"/>
	<g>
		<rect x="43.948" y="206.53" fill="#ECECEC" width="32.554" height="2.544"/>
		<path fill="#ECECEC" d="M77.519,209.074c0,0.562-0.456,1.017-1.017,1.017H43.948c-0.562,0-1.017-0.456-1.017-1.017v-2.544
			c0-0.562,0.456-1.017,1.017-1.017h32.554c0.562,0,1.017,0.456,1.017,1.017V209.074z M44.966,208.057h30.519v-0.509H44.966V208.057
			z"/>
	</g>
	<g>
		<rect x="43.948" y="215.374" fill="#ECECEC" width="29.398" height="2.544"/>
		<path fill="#ECECEC" d="M74.363,217.917c0,0.562-0.456,1.017-1.017,1.017H43.948c-0.562,0-1.017-0.456-1.017-1.017v-2.544
			c0-0.562,0.456-1.017,1.017-1.017h29.398c0.562,0,1.017,0.456,1.017,1.017V217.917z M44.966,216.9h27.363v-0.509H44.966V216.9z"/>
	</g>
	<g>
		<rect x="25.411" y="205.962" fill="#ECECEC" width="12.209" height="12.209"/>
		<path fill="#ECECEC" d="M38.637,218.171c0,0.562-0.456,1.017-1.017,1.017H25.411c-0.562,0-1.017-0.456-1.017-1.017v-12.209
			c0-0.562,0.456-1.017,1.017-1.017H37.62c0.562,0,1.017,0.456,1.017,1.017V218.171z M26.428,217.662h10.174V206.98H26.428V217.662z
			"/>
	</g>
	<g>
		<path fill="#FFFFFF" d="M35.386,212.326c0.052-0.273,0.08-0.556,0.08-0.846c0-1.231-0.583-2.587-1.249-3.28
			c-0.225-0.234-0.455-0.402-0.741-0.536c-0.595-0.279-1.155-0.298-1.778-0.298c-1.553,0-2.959,1.03-3.536,2.495
			c-0.196,0.498-0.232,1.043-0.232,1.62c0,0.107,0.011,0.805,0.011,0.805s-0.925,0.115-0.603,1.264c0,0,0.225,0.698,0.996,0.647
			c0.078,0.236,0.168,0.444,0.275,0.593l0,0.001c0.581,1.093,1.731,1.855,3.055,1.855c1.552,0,2.865-0.98,3.303-2.412h0
			c0.959,0.065,1.052-0.975,1.052-0.975C35.962,212.639,35.629,212.403,35.386,212.326z"/>
		<path fill="#78878C" d="M27.941,212.284c0,0,0.537,0.053,0.905-0.366c0.371-0.422,0.314-0.713,0.443-1.472
			c0,0,0.071-1.011,0.885-0.998c0.684,0.011,0.846,0.418,1.593,0.443c0.833,0.028,1.025-0.334,1.526-0.334
			c0.401,0,0.648,0.186,0.695,0.926c0.041,0.657,0.286,1.143,0.582,1.446c0.257,0.264,0.702,0.387,0.817,0.397
			c0,0,0.043-0.269,0.057-0.388c0.024-0.207,0.024-0.307,0.026-0.41c0.002-0.183-0.004-0.207-0.01-0.319
			c-0.011-0.214-0.034-0.377-0.064-0.543c-0.045-0.246-0.113-0.567-0.322-1.085c-0.308-0.763-0.72-1.31-1.143-1.642
			c-0.781-0.612-1.66-0.595-2.41-0.568c-0.599,0.022-1.505,0.234-2.246,0.923c-0.54,0.502-0.882,0.955-1.176,1.754
			c-0.065,0.178-0.109,0.422-0.136,0.703C27.913,211.23,27.919,211.809,27.941,212.284z"/>
	</g>
	
		<line fill="none" stroke="#ECECEC" stroke-width="3" stroke-linecap="round" stroke-miterlimit="10" x1="24.902" y1="229.168" x2="77.519" y2="229.168"/>
	
		<line fill="none" stroke="#ECECEC" stroke-width="3" stroke-linecap="round" stroke-miterlimit="10" x1="24.902" y1="236.879" x2="73.346" y2="236.879"/>
	
		<line fill="none" stroke="#ECECEC" stroke-width="3" stroke-linecap="round" stroke-miterlimit="10" x1="24.902" y1="244.589" x2="66.129" y2="244.589"/>
	
		<line fill="none" stroke="#ECECEC" stroke-width="3" stroke-linecap="round" stroke-miterlimit="10" x1="24.902" y1="252.3" x2="73.346" y2="252.3"/>
	
		<line fill="none" stroke="#ECECEC" stroke-width="3" stroke-linecap="round" stroke-miterlimit="10" x1="24.902" y1="260.01" x2="73.346" y2="260.01"/>
	
		<line fill="none" stroke="#ECECEC" stroke-width="3" stroke-linecap="round" stroke-miterlimit="10" x1="24.902" y1="267.721" x2="73.346" y2="267.721"/>
	
		<line fill="none" stroke="#ECECEC" stroke-width="3" stroke-linecap="round" stroke-miterlimit="10" x1="24.902" y1="275.431" x2="66.129" y2="275.431"/>
	
		<line fill="none" stroke="#ECECEC" stroke-width="3" stroke-linecap="round" stroke-miterlimit="10" x1="24.902" y1="283.142" x2="73.346" y2="283.142"/>
</g>
<g opacity="0.2">
	<rect x="180.78" y="38.481" fill="#ECECEC" width="43.996" height="3.475"/>
	<path fill="#ECECEC" d="M226.166,41.956c0,0.768-0.622,1.39-1.39,1.39H180.78c-0.768,0-1.39-0.622-1.39-1.39v-3.475
		c0-0.768,0.622-1.39,1.39-1.39h43.996c0.768,0,1.39,0.622,1.39,1.39V41.956z M182.17,40.566h41.216v-0.695H182.17V40.566z"/>
</g>
<g opacity="0.2">
	<rect x="83.701" y="135.645" fill="#ECECEC" width="30.797" height="2.433"/>
	<path fill="#ECECEC" d="M115.471,138.077c0,0.537-0.436,0.973-0.973,0.973H83.701c-0.537,0-0.973-0.436-0.973-0.973v-2.433
		c0-0.537,0.436-0.973,0.973-0.973h30.797c0.537,0,0.973,0.436,0.973,0.973V138.077z M84.674,137.104h28.851v-0.487H84.674V137.104z
		"/>
</g>
<g opacity="0.2">
	<rect x="24.809" y="189.012" fill="#ECECEC" width="30.797" height="2.433"/>
	<path fill="#ECECEC" d="M56.58,191.445c0,0.537-0.436,0.973-0.973,0.973H24.809c-0.537,0-0.973-0.436-0.973-0.973v-2.433
		c0-0.537,0.436-0.973,0.973-0.973h30.797c0.537,0,0.973,0.436,0.973,0.973V191.445z M25.783,190.472h28.851v-0.487H25.783V190.472z
		"/>
</g>
</svg>
